<svg width="380" height="44" viewBox="0 0 380 44" fill="none" xmlns="http://www.w3.org/2000/svg">
<path d="M236.943 1.4955H246.549V8.5187H236.943V1.4955Z" fill="#0B7ABF"/>
<path d="M237.683 13.341H246.603V20.3642H237.683V13.341Z" fill="#19A755"/>
<path d="M238.424 25.1863H246.658V32.2095H238.424V25.1863Z" fill="#FABC41"/>
<path d="M239.165 36.2419H246.712V43.2651H239.165V36.2419Z" fill="#F90C0C"/>
<path d="M254.208 1.4955C258.359 1.4955 261.972 2.35958 265.047 4.08773C268.123 5.77832 270.494 8.23906 272.162 11.47C273.867 14.7009 274.719 18.5329 274.719 22.9659C274.719 27.2112 273.811 30.9117 271.995 34.0675C270.216 37.1857 267.715 39.59 264.491 41.2806C261.305 42.9337 258.698 43.7602 253.431 43.4646H249.407L249.407 36.3712L249.261 8.51498V1.4955H254.208ZM252.553 36.3712C255.777 36.3712 258.451 36.5282 260.712 35.3636C263.009 34.1614 264.732 32.4896 265.881 30.3482C267.067 28.2068 267.66 25.7085 267.66 22.8532C267.66 18.3826 266.474 14.8136 264.102 12.1462C261.731 9.47882 258.14 8.51498 253.211 8.51498H249.261L249.407 36.3712H252.553Z" fill="white"/>
<path d="M7.53878 43.5237H0V0.476317H7.53878V22V43.5237Z" fill="white"/>
<path d="M50.6146 0.476317V43.5237H46.7614C46.1657 43.5237 45.6632 43.4244 45.2536 43.226C44.8627 43.0077 44.4811 42.6504 44.1089 42.1543L23.0282 13.456C23.1399 14.7659 23.1957 15.9765 23.1957 17.088V43.5237H16.5783V0.476317H20.5153C20.8317 0.476317 21.1016 0.496163 21.325 0.535856C21.567 0.555704 21.7717 0.615244 21.9393 0.714477C22.1254 0.793865 22.3022 0.922868 22.4698 1.10149C22.6373 1.26026 22.8234 1.47857 23.0282 1.75642L44.1926 30.5737C44.1368 29.8791 44.0902 29.1944 44.053 28.5196C44.0158 27.8448 43.9972 27.2197 43.9972 26.6441V0.476317H50.6146Z" fill="white"/>
<path d="M87.8063 7.05548H75.6326V43.5237H68.1217V7.05548H55.948V0.476317H87.8063V7.05548Z" fill="white"/>
<path d="M100.628 6.84709V18.7848H114.757V24.9472H100.628V37.1231H118.554V43.5237H93.0896V0.476317H118.554V6.84709H100.628Z" fill="white"/>
<path d="M157.62 21.9405V39.3559C155.572 40.9635 153.385 42.1443 151.058 42.8985C148.75 43.6328 146.275 44 143.631 44C140.337 44 137.349 43.4542 134.668 42.3627C132.007 41.2711 129.726 39.7528 127.828 37.8078C125.948 35.8629 124.496 33.5408 123.472 30.8417C122.448 28.1425 121.936 25.1953 121.936 22C121.936 18.765 122.43 15.7979 123.416 13.0988C124.403 10.3996 125.799 8.07758 127.604 6.13261C129.429 4.18764 131.634 2.67929 134.222 1.60757C136.809 0.535858 139.713 0 142.933 0C144.571 0 146.098 0.138926 147.512 0.416778C148.946 0.694632 150.267 1.08164 151.477 1.57781C152.706 2.05413 153.823 2.6396 154.828 3.33423C155.833 4.02887 156.754 4.79296 157.592 5.62652L155.442 9.25846C155.107 9.83401 154.67 10.1912 154.13 10.3302C153.59 10.4493 153.004 10.3004 152.371 9.88363C151.756 9.50654 151.142 9.12945 150.528 8.75237C149.914 8.37528 149.225 8.04781 148.462 7.76996C147.717 7.49211 146.87 7.26387 145.921 7.08525C144.99 6.90663 143.91 6.81732 142.682 6.81732C140.69 6.81732 138.885 7.17456 137.265 7.88904C135.664 8.60352 134.296 9.62562 133.161 10.9553C132.025 12.2851 131.15 13.8827 130.536 15.7483C129.922 17.6139 129.615 19.6978 129.615 22C129.615 24.461 129.94 26.664 130.592 28.6089C131.262 30.5341 132.193 32.1714 133.384 33.521C134.594 34.8507 136.046 35.8728 137.74 36.5873C139.434 37.2819 141.323 37.6292 143.408 37.6292C144.897 37.6292 146.228 37.4605 147.401 37.1231C148.573 36.7857 149.718 36.3293 150.835 35.7537V27.954H145.753C145.269 27.954 144.888 27.8151 144.609 27.5372C144.348 27.2395 144.218 26.8823 144.218 26.4655V21.9405H157.62Z" fill="white"/>
<path d="M177.058 20.9581C178.473 20.9581 179.701 20.7695 180.744 20.3924C181.805 20.0153 182.67 19.4993 183.34 18.8444C184.029 18.1696 184.541 17.3757 184.876 16.4628C185.211 15.5498 185.379 14.5476 185.379 13.456C185.379 11.2729 184.699 9.59585 183.34 8.4249C182 7.25395 179.943 6.66847 177.17 6.66847H172.367V20.9581H177.058ZM196.38 43.5237H189.595C188.31 43.5237 187.38 42.9878 186.803 41.9161L178.314 28.1326C177.998 27.6166 177.644 27.2494 177.253 27.0311C176.881 26.8128 176.323 26.7037 175.578 26.7037H172.367V43.5237H164.856V0.476317H177.17C179.906 0.476317 182.251 0.78394 184.206 1.39919C186.179 1.99458 187.789 2.83807 189.036 3.92963C190.302 5.0212 191.233 6.33108 191.828 7.85927C192.424 9.36761 192.722 11.0347 192.722 12.8606C192.722 14.3094 192.517 15.6788 192.108 16.9689C191.717 18.2589 191.14 19.4299 190.377 20.4817C189.632 21.5336 188.701 22.4565 187.584 23.2503C186.486 24.0442 185.23 24.6694 183.815 25.1258C184.299 25.4235 184.746 25.7808 185.155 26.1976C185.565 26.5945 185.937 27.0708 186.272 27.6265L196.38 43.5237Z" fill="white"/>
<path d="M222.072 27.2693L217.158 12.9499C216.916 12.3148 216.664 11.5607 216.404 10.6874C216.143 9.81416 215.882 8.87145 215.622 7.85927C215.38 8.87145 215.129 9.82409 214.868 10.7172C214.607 11.5904 214.356 12.3545 214.114 13.0095L209.228 27.2693H222.072ZM235.334 43.5237H229.527C228.875 43.5237 228.345 43.355 227.935 43.0176C227.526 42.6604 227.219 42.2237 227.014 41.7077L223.998 32.9256H207.273L204.258 41.7077C204.109 42.1642 203.82 42.581 203.392 42.958C202.964 43.3351 202.434 43.5237 201.801 43.5237H195.937L211.825 0.476317H219.475L235.334 43.5237Z" fill="white"/>
<path d="M297.874 27.2693L292.96 12.9499C292.718 12.3148 292.467 11.5607 292.206 10.6874C291.945 9.81416 291.685 8.87145 291.424 7.85927C291.182 8.87145 290.931 9.82409 290.67 10.7172C290.41 11.5904 290.158 12.3545 289.916 13.0095L285.03 27.2693H297.874ZM311.137 43.5237H305.329C304.677 43.5237 304.147 43.355 303.737 43.0176C303.328 42.6604 303.021 42.2237 302.816 41.7077L299.801 32.9256H283.076L280.06 41.7077C279.911 42.1642 279.623 42.581 279.195 42.958C278.766 43.3351 278.236 43.5237 277.603 43.5237H271.74L287.627 0.476317H295.277L311.137 43.5237Z" fill="white"/>
<path d="M336.815 8.30582C336.592 8.7226 336.35 9.03022 336.089 9.22869C335.847 9.40731 335.54 9.49662 335.168 9.49662C334.777 9.49662 334.349 9.34777 333.883 9.05007C333.437 8.73252 332.897 8.3852 332.264 8.00812C331.631 7.63103 330.887 7.29364 330.03 6.99594C329.193 6.67839 328.197 6.51962 327.043 6.51962C326 6.51962 325.088 6.65855 324.306 6.9364C323.525 7.1944 322.864 7.56157 322.324 8.03789C321.803 8.51421 321.412 9.08976 321.151 9.76455C320.891 10.4195 320.76 11.1439 320.76 11.9378C320.76 12.9499 321.021 13.7934 321.542 14.4682C322.082 15.143 322.789 15.7185 323.664 16.1949C324.539 16.6712 325.535 17.0979 326.652 17.475C327.769 17.8521 328.913 18.2589 330.086 18.6955C331.259 19.1123 332.404 19.6085 333.52 20.184C334.637 20.7397 335.633 21.4542 336.508 22.3275C337.383 23.1809 338.081 24.2327 338.602 25.4831C339.142 26.7334 339.412 28.2517 339.412 30.0379C339.412 31.9829 339.095 33.8088 338.463 35.5156C337.848 37.2025 336.936 38.6811 335.726 39.9513C334.535 41.2016 333.074 42.194 331.343 42.9283C329.611 43.6428 327.629 44 325.395 44C324.111 44 322.845 43.8611 321.598 43.5832C320.351 43.3252 319.15 42.9481 317.996 42.452C316.861 41.9558 315.79 41.3604 314.785 40.6658C313.78 39.9711 312.887 39.1971 312.105 38.3437L314.311 34.5034C314.497 34.2255 314.739 33.9973 315.036 33.8187C315.334 33.6202 315.651 33.521 315.986 33.521C316.451 33.521 316.954 33.7294 317.494 34.1461C318.033 34.5431 318.676 34.9896 319.42 35.4858C320.165 35.982 321.03 36.4384 322.017 36.8552C323.022 37.2521 324.223 37.4506 325.619 37.4506C327.759 37.4506 329.416 36.9147 330.589 35.843C331.761 34.7515 332.348 33.1935 332.348 31.1691C332.348 30.0379 332.078 29.115 331.538 28.4005C331.017 27.6861 330.319 27.0907 329.444 26.6143C328.569 26.1182 327.573 25.7014 326.456 25.364C325.339 25.0266 324.204 24.6594 323.05 24.2625C321.896 23.8656 320.76 23.3893 319.643 22.8336C318.527 22.2779 317.531 21.5535 316.656 20.6604C315.781 19.7673 315.074 18.6558 314.534 17.3261C314.013 15.9765 313.752 14.3193 313.752 12.3545C313.752 10.7866 314.041 9.25846 314.618 7.76996C315.213 6.28146 316.07 4.96166 317.186 3.81055C318.303 2.65945 319.681 1.73658 321.319 1.04195C322.957 0.347316 324.837 0 326.959 0C329.342 0 331.538 0.396933 333.548 1.1908C335.559 1.98466 337.271 3.09607 338.686 4.52503L336.815 8.30582Z" fill="white"/>
<path d="M380 0.476317V43.5237H372.461V24.7091H353.503V43.5237H345.964V0.476317H353.503V18.9932H372.461V0.476317H380Z" fill="white"/>
</svg>
